# xmcd
#
# Track frame offsets:
#	150
#	19640
#	39180
#	56935
#	71997
#	83147
#	98170
#	113342
#	131810
#	149372
#	168432
#	187737
#	206837
#	230957
#	250460
#	265520
#
# Disc length: 3796 seconds
#
# Revision: 1
# Processed by: cddbd v1.5PL3 Copyright (c) Steve Scherf et al.
# Submitted via: CDex 1.50Beta5
#
DISCID=e30ed210
DTITLE=わらべ - めだかの兄妹〜わらべ全曲集〜
DYEAR=1900
DGENRE=Pop
TTITLE0=もしも明日が
TTITLE1=ここへおいでよ
TTITLE2=レンゲ畑でいねむりしたら
TTITLE3=涙のブランコ
TTITLE4=黄色いボタン
TTITLE5=めだかの兄妹
TTITLE6=野菜の詩
TTITLE7=How to 悲しみのクッキング
TTITLE8=昔、むかしは・・・
TTITLE9=春風の郵便屋さん
TTITLE10=もしも明日が・・・音頭編
TTITLE11=時計をとめて
TTITLE12=流れ星メルヘン
TTITLE13=もしも明日が(オリジナルカラオケ)
TTITLE14=めだかの兄妹(オリジナルカラオケ)
TTITLE15=もしも明日が・・・音頭編(オリジナルカラオケ)
EXTD=FLCF-3613
EXTT0=
EXTT1=
EXTT2=
EXTT3=
EXTT4=
EXTT5=
EXTT6=
EXTT7=
EXTT8=
EXTT9=
EXTT10=
EXTT11=
EXTT12=
EXTT13=
EXTT14=
EXTT15=
PLAYORDER=
